<?xml version="1.0" standalone="no"?><!DOCTYPE svg PUBLIC "-//W3C//DTD SVG 1.1//EN" "http://www.w3.org/Graphics/SVG/1.1/DTD/svg11.dtd"><svg class="icon" width="200px" height="200.00px" viewBox="0 0 1024 1024" version="1.1" xmlns="http://www.w3.org/2000/svg"><path fill="#bfbfbf" d="M580.26666699 512l-183.46666699-183.466667c-17.066667-17.066667-17.066667-42.666667 0-59.733333 17.066667-17.066667 42.666667-17.066667 59.733333 0l213.333334 213.333333c17.066667 17.066667 17.066667 42.666667 0 59.733334l-213.333334 213.333333c-17.066667 17.066667-42.666667 17.066667-59.733333 0-17.066667-17.066667-17.066667-42.666667 0-59.733333l183.46666699-183.466667z"  /><path fill="#bfbfbf" d="M580.26666699 512l-183.46666699-183.466667c-17.066667-17.066667-17.066667-42.666667 0-59.733333 17.066667-17.066667 42.666667-17.066667 59.733333 0l213.333334 213.333333c17.066667 17.066667 17.066667 42.666667 0 59.733334l-213.333334 213.333333c-17.066667 17.066667-42.666667 17.066667-59.733333 0-17.066667-17.066667-17.066667-42.666667 0-59.733333l183.46666699-183.466667z"  /></svg>