<?xml version="1.0" standalone="no"?><!DOCTYPE svg PUBLIC "-//W3C//DTD SVG 1.1//EN" "http://www.w3.org/Graphics/SVG/1.1/DTD/svg11.dtd"><svg t="1572366390031" class="icon" viewBox="0 0 1024 1024" version="1.1" xmlns="http://www.w3.org/2000/svg" p-id="2972" xmlns:xlink="http://www.w3.org/1999/xlink" width="200" height="200"><defs><style type="text/css"></style></defs><path d="M899.398 996.913l-269.027-92.88c-40.437 9.872-82.237 14.873-124.41 14.873-65.415 0-128.912-11.824-188.727-35.145-57.918-22.582-109.969-54.94-154.707-96.179-44.929-41.415-80.235-89.708-104.936-143.539-25.671-55.947-38.688-115.39-38.688-176.676s13.017-120.73 38.689-176.678c24.701-53.832 60.006-102.125 104.936-143.54 44.738-41.238 96.789-73.597 154.707-96.178 59.815-23.32 123.312-35.145 188.727-35.145 65.416 0 128.913 11.825 188.727 35.145 57.919 22.581 109.97 54.94 154.707 96.178 44.93 41.415 80.235 89.708 104.936 143.54 25.673 55.948 38.689 115.391 38.689 176.678 0 105.983-39.971 208.069-112.876 289.102l19.253 240.444zM633.063 835.14l192.491 66.457-13.542-169.111 10.275-10.701c67.538-70.341 104.732-160.695 104.732-254.417 0-102.471-43.454-198.958-122.357-271.689-38.662-35.638-83.729-63.636-133.948-83.215-52.143-20.329-107.573-30.637-164.753-30.637-57.18 0-112.61 10.308-164.752 30.637-50.22 19.58-95.287 47.577-133.949 83.215-78.903 72.73-122.357 169.217-122.357 271.688 0 102.47 43.454 198.957 122.357 271.688 38.662 35.638 83.729 63.635 133.949 83.215 52.142 20.329 107.573 30.637 164.752 30.637 39.912 0 79.403-5.109 117.378-15.187l9.724-2.58z" fill="#2c2c2c" p-id="2973"></path><path d="M340.455 365.914h329.964v48.111H340.455zM340.456 548.836h214.476v48.111H340.456z" fill="#2c2c2c" p-id="2974"></path></svg>