<svg t="1571325030787" class="icon" viewBox="0 0 1024 1024" version="1.1" xmlns="http://www.w3.org/2000/svg" p-id="1945" width="200" height="200"><path d="M722.286 475.429H548.57V301.714c0-5.028-4.114-9.143-9.142-9.143H484.57c-5.028 0-9.142 4.115-9.142 9.143V475.43H301.714c-5.028 0-9.143 4.114-9.143 9.142v54.858c0 5.028 4.115 9.142 9.143 9.142H475.43v173.715c0 5.028 4.114 9.143 9.142 9.143h54.858c5.028 0 9.142-4.115 9.142-9.143V548.57h173.715c5.028 0 9.143-4.114 9.143-9.142V484.57c0-5.028-4.115-9.142-9.143-9.142z" fill="#8a8a8a" p-id="1946"></path><path d="M512 0C229.257 0 0 229.257 0 512s229.257 512 512 512 512-229.257 512-512S794.743 0 512 0z m0 937.143c-234.743 0-425.143-190.4-425.143-425.143S277.257 86.857 512 86.857 937.143 277.257 937.143 512 746.743 937.143 512 937.143z" fill="#8a8a8a" p-id="1947"></path></svg>